<?xml version="1.0" standalone="no"?><!-- Generator: Gravit.io --><svg xmlns="http://www.w3.org/2000/svg"  xmlns:xlink="http://www.w3.org/1999/xlink" style="isolation:isolate" viewBox="17.18 0 451.64 486" width="40px" ><g><path d=" M 145.898 319.994 L 413.685 319.994 C 430.499 319.994 445.598 312.399 455.725 300.464 C 463.887 290.846 468.82 278.409 468.82 264.859 L 468.82 152.191 C 468.82 152.091 468.82 151.891 468.82 151.791 C 468.82 151.492 468.82 151.292 468.82 150.992 C 468.82 150.792 468.82 150.593 468.72 150.393 C 468.72 150.193 468.62 149.894 468.62 149.694 C 468.62 149.494 468.52 149.294 468.52 149.094 C 468.421 148.895 468.421 148.695 468.321 148.395 C 468.221 148.195 468.221 147.996 468.121 147.796 C 468.021 147.596 468.021 147.396 467.921 147.197 C 467.821 146.997 467.721 146.797 467.622 146.497 C 467.522 146.298 467.422 146.098 467.322 145.998 C 467.222 145.798 467.122 145.599 467.022 145.399 C 466.922 145.199 466.822 145.099 466.723 144.899 C 466.623 144.7 466.423 144.5 466.323 144.3 C 466.223 144.1 466.123 144 465.924 143.801 C 465.824 143.601 465.624 143.501 465.524 143.301 C 465.424 143.101 465.224 143.002 465.124 142.802 C 465.025 142.602 464.825 142.502 464.725 142.402 C 464.525 142.203 464.425 142.103 464.225 141.903 C 464.026 141.803 463.926 141.603 463.726 141.503 C 463.526 141.403 463.327 141.204 463.127 141.104 C 462.927 141.004 462.827 140.904 462.627 140.804 C 462.428 140.704 462.228 140.604 462.028 140.405 C 461.828 140.305 461.629 140.205 461.429 140.105 C 461.229 140.005 461.029 139.905 460.829 139.805 C 460.63 139.705 460.43 139.606 460.23 139.506 C 460.03 139.406 459.831 139.406 459.631 139.306 C 459.431 139.206 459.131 139.106 458.932 139.106 C 458.732 139.106 458.532 139.006 458.432 139.006 C 458.133 138.906 457.933 138.906 457.633 138.906 C 457.533 138.906 457.433 138.806 457.234 138.806 L 117.831 91.961 L 117.831 44.617 C 117.831 44.117 117.831 43.618 117.731 43.218 C 117.731 43.119 117.731 43.019 117.631 42.819 C 117.631 42.519 117.531 42.22 117.531 41.92 C 117.432 41.62 117.432 41.421 117.332 41.121 C 117.332 40.921 117.232 40.821 117.232 40.621 C 117.132 40.322 117.032 40.022 116.932 39.722 C 116.932 39.623 116.832 39.423 116.832 39.323 C 116.732 39.023 116.632 38.824 116.433 38.524 C 116.333 38.424 116.333 38.224 116.233 38.124 C 116.133 37.925 116.033 37.725 115.833 37.525 C 115.734 37.325 115.634 37.225 115.534 37.026 C 115.434 36.826 115.334 36.726 115.234 36.526 C 115.134 36.326 114.934 36.127 114.835 35.927 C 114.735 35.827 114.635 35.727 114.535 35.627 C 114.335 35.428 114.135 35.228 113.936 35.028 C 113.836 34.928 113.736 34.828 113.636 34.728 C 113.436 34.529 113.236 34.329 112.937 34.129 C 112.837 34.029 112.637 33.929 112.537 33.829 C 112.337 33.63 112.138 33.53 111.938 33.33 C 111.638 33.13 111.339 32.93 111.139 32.831 C 111.039 32.731 110.939 32.731 110.839 32.631 C 110.44 32.431 109.94 32.231 109.541 32.031 L 35.927 1.068 C 29.035 -1.829 21.144 1.367 18.248 8.259 C 15.351 15.151 18.547 23.042 25.439 25.939 L 90.763 53.506 L 90.763 114.635 L 90.763 124.323 L 90.763 198.636 L 90.763 265.059 L 90.763 348.96 C 90.763 376.928 111.738 400.101 138.806 403.596 C 133.912 411.787 131.016 421.376 131.016 431.564 C 131.016 461.629 155.487 486 185.452 486 C 215.417 486 239.888 461.529 239.888 431.564 C 239.888 421.575 237.191 412.087 232.397 404.096 L 353.655 404.096 C 348.861 412.186 346.164 421.575 346.164 431.564 C 346.164 461.629 370.635 486 400.6 486 C 430.565 486 455.036 461.529 455.036 431.564 C 455.036 401.599 430.565 377.127 400.6 377.127 L 145.898 377.127 C 130.316 377.127 117.731 364.442 117.731 348.96 L 117.731 312.403 C 125.922 317.198 135.61 319.994 145.898 319.994 Z  M 213.02 431.464 C 213.02 446.646 200.634 458.932 185.552 458.932 C 170.469 458.932 158.084 446.546 158.084 431.464 C 158.084 416.382 170.469 403.996 185.552 403.996 C 200.634 403.996 213.02 416.282 213.02 431.464 Z  M 428.168 431.464 C 428.168 446.646 415.782 458.932 400.7 458.932 C 385.618 458.932 373.232 446.546 373.232 431.464 C 373.232 416.382 385.618 403.996 400.7 403.996 C 415.782 403.996 428.168 416.282 428.168 431.464 Z " fill="rgb(150,3,89)"/></g></svg>