<?xml version="1.0" encoding="UTF-8" standalone="no"?><!-- Generator: Gravit.io --><svg xmlns="http://www.w3.org/2000/svg" xmlns:xlink="http://www.w3.org/1999/xlink" style="isolation:isolate" viewBox="60 245 58 42" width="58pt" height="42pt"><g><g><path d=" M 114.783 287 L 63.217 287 C 61.44 287 60 285.56 60 283.783 L 60 248.217 C 60 246.44 61.44 245 63.217 245 L 114.783 245 C 116.56 245 118 246.44 118 248.217 L 118 283.783 C 118 285.56 116.56 287 114.783 287 Z " fill="rgb(246,181,69)"/><rect x="60" y="250" width="58" height="8" transform="matrix(1,0,0,1,0,0)" fill="rgb(128,111,94)"/><path d=" M 75 265 L 66 265 C 65.448 265 65 264.552 65 264 C 65 263.448 65.448 263 66 263 L 75 263 C 75.552 263 76 263.448 76 264 C 76 264.552 75.552 265 75 265 Z " fill="rgb(249,234,176)"/><path d=" M 88 265 L 79 265 C 78.448 265 78 264.552 78 264 C 78 263.448 78.448 263 79 263 L 88 263 C 88.552 263 89 263.448 89 264 C 89 264.552 88.552 265 88 265 Z " fill="rgb(249,234,176)"/><path d=" M 67 270 L 66 270 C 65.448 270 65 269.552 65 269 C 65 268.448 65.448 268 66 268 L 67 268 C 67.552 268 68 268.448 68 269 C 68 269.552 67.552 270 67 270 Z " fill="rgb(249,234,176)"/><path d=" M 73 270 L 71 270 C 70.448 270 70 269.552 70 269 C 70 268.448 70.448 268 71 268 L 73 268 C 73.552 268 74 268.448 74 269 C 74 269.552 73.552 270 73 270 Z " fill="rgb(249,234,176)"/><path d=" M 78 270 L 77 270 C 76.448 270 76 269.552 76 269 C 76 268.448 76.448 268 77 268 L 78 268 C 78.552 268 79 268.448 79 269 C 79 269.552 78.552 270 78 270 Z " fill="rgb(249,234,176)"/><path d=" M 84 270 L 82 270 C 81.448 270 81 269.552 81 269 C 81 268.448 81.448 268 82 268 L 84 268 C 84.552 268 85 268.448 85 269 C 85 269.552 84.552 270 84 270 Z " fill="rgb(249,234,176)"/><path d=" M 88 270 C 87.74 270 87.48 269.89 87.29 269.71 C 87.11 269.52 87 269.27 87 269 C 87 268.74 87.11 268.48 87.29 268.29 C 87.66 267.92 88.33 267.92 88.71 268.29 C 88.89 268.48 89 268.74 89 269 C 89 269.26 88.89 269.52 88.71 269.71 C 88.52 269.89 88.26 270 88 270 Z " fill="rgb(249,234,176)"/><path d=" M 106 276 C 106 279.314 103.314 282 100 282 C 96.686 282 94 279.314 94 276 C 94 272.686 96.686 270 100 270 C 103.314 270 106 272.686 106 276 Z " fill="rgb(219,34,21)"/><path d=" M 113 276 C 113 279.314 110.314 282 107 282 C 103.686 282 101 279.314 101 276 C 101 272.686 103.686 270 107 270 C 110.314 270 113 272.686 113 276 Z " fill="rgb(36,94,169)"/></g></g></svg>