<?xml version="1.0" standalone="no"?><!-- Generator: Gravit.io --><svg xmlns="http://www.w3.org/2000/svg" xmlns:xlink="http://www.w3.org/1999/xlink" style="isolation:isolate" viewBox="393.437 2743.996 198.569 108.914" width="198.569" height="108.914"><g><path d=" M 554 2852.911 Q 591.667 2803.333 592 2785 C 592.333 2766.667 580 2744.333 554 2744 C 528 2743.667 516 2766.667 516 2785 Q 516 2803.333 554 2852.911 Z " fill="rgb(128,11,88)"/><circle vector-effect="non-scaling-stroke" cx="554.5" cy="2782.5000000000005" r="12.5" fill="rgb(255,255,255)"/><ellipse vector-effect="non-scaling-stroke" cx="555.5918592954462" cy="2783.7277138488907" rx="11.40814070455383" ry="11.727713848890744" fill="rgb(253,240,16)"/><rect x="417.256" y="2807.709" width="79.674" height="3.617" transform="matrix(-1,0,0,-1,914.186,5619.035)" fill="rgb(235,235,235)"/><rect x="393.437" y="2777" width="103.492" height="3.617" transform="matrix(-1,0,0,-1,890.367,5557.617)" fill="rgb(235,235,235)"/><rect x="457.333" y="2834.868" width="55.667" height="3.617" transform="matrix(-1,0,0,-1,970.333,5673.353)" fill="rgb(235,235,235)"/></g></svg>