<?xml version="1.0" standalone="no"?><!-- Generator: Gravit.io --><svg xmlns="http://www.w3.org/2000/svg" xmlns:xlink="http://www.w3.org/1999/xlink" style="isolation:isolate" viewBox="1048.868 2458 136 136" width="136" height="136"><g><path d=" M 1164.95 2574.083 C 1138.395 2600.639 1095.34 2600.639 1068.784 2574.083 C 1042.229 2547.528 1042.229 2504.473 1068.784 2477.916 C 1095.339 2451.361 1138.394 2451.361 1164.95 2477.916 C 1191.507 2504.473 1191.507 2547.528 1164.95 2574.083 Z " fill="rgb(255,245,245)"/><path d=" M 1105.621 2503.825 L 1105.621 2593.068 C 1092.132 2590.817 1079.191 2584.49 1068.784 2574.083 C 1049.429 2554.728 1044.185 2526.607 1053.046 2502.497 L 1104.293 2502.497 C 1105.026 2502.497 1105.621 2503.092 1105.621 2503.825 L 1105.621 2503.825 Z  M 1180.69 2502.497 L 1117.043 2502.497 C 1116.309 2502.497 1115.714 2503.093 1115.714 2503.825 L 1115.714 2593.986 C 1133.5 2594.286 1151.38 2587.655 1164.95 2574.083 C 1184.307 2554.728 1189.55 2526.607 1180.69 2502.497 L 1180.69 2502.497 Z " fill="rgb(216,216,216)"/><path d=" M 1176.003 2492.403 L 1117.043 2492.403 C 1116.309 2492.403 1115.714 2491.81 1115.714 2491.075 L 1115.714 2458.014 C 1133.5 2457.714 1151.38 2464.346 1164.95 2477.916 C 1169.373 2482.339 1173.053 2487.22 1176.003 2492.403 Z  M 1057.733 2492.403 L 1104.293 2492.403 C 1105.026 2492.403 1105.621 2491.81 1105.621 2491.075 L 1105.621 2458.933 C 1092.132 2461.183 1079.191 2467.51 1068.784 2477.917 C 1064.363 2482.339 1060.681 2487.22 1057.733 2492.403 Z " fill="rgb(112,240,95)"/><path d=" M 1124.57 2492.403 L 1117.043 2492.403 C 1116.309 2492.403 1115.714 2491.81 1115.714 2491.075 L 1115.714 2458.014 C 1118.226 2457.972 1120.739 2458.072 1123.242 2458.307 L 1123.242 2491.075 C 1123.242 2491.809 1123.837 2492.403 1124.57 2492.403 Z  M 1096.68 2481.906 L 1091.367 2481.906 C 1089.9 2481.906 1088.711 2483.095 1088.711 2484.562 C 1088.711 2486.029 1089.9 2487.218 1091.367 2487.218 L 1096.68 2487.218 C 1098.147 2487.218 1099.336 2486.029 1099.336 2484.562 C 1099.336 2483.095 1098.147 2481.906 1096.68 2481.906 Z  M 1099.336 2465.969 L 1094.023 2465.969 C 1092.556 2465.969 1091.367 2467.158 1091.367 2468.625 C 1091.367 2470.092 1092.556 2471.281 1094.023 2471.281 L 1099.336 2471.281 C 1100.803 2471.281 1101.992 2470.092 1101.992 2468.625 C 1101.992 2467.158 1100.803 2465.969 1099.336 2465.969 Z  M 1086.055 2473.937 L 1080.742 2473.937 C 1079.275 2473.937 1078.086 2475.126 1078.086 2476.594 L 1078.086 2476.685 C 1078.086 2478.101 1076.937 2479.25 1075.521 2479.25 C 1074.107 2479.25 1072.871 2480.317 1072.78 2481.73 C 1072.679 2483.277 1073.905 2484.562 1075.43 2484.562 L 1080.742 2484.562 C 1082.209 2484.562 1083.399 2483.373 1083.399 2481.906 L 1083.399 2481.816 C 1083.399 2480.398 1084.547 2479.25 1085.963 2479.25 C 1087.379 2479.25 1088.614 2478.182 1088.706 2476.771 C 1088.805 2475.224 1087.58 2473.937 1086.055 2473.937 Z " fill="rgb(73,203,92)"/><path d=" M 1173.711 2539.679 C 1173.711 2544.44 1169.838 2548.312 1165.078 2548.312 L 1139.844 2548.312 C 1137.281 2548.312 1135.195 2550.398 1135.195 2552.961 C 1135.195 2555.524 1137.281 2557.609 1139.844 2557.609 L 1151.797 2557.609 C 1156.557 2557.609 1160.43 2561.482 1160.43 2566.242 C 1160.43 2571.002 1156.557 2574.875 1151.797 2574.875 L 1114.609 2574.875 C 1113.51 2574.875 1112.617 2573.983 1112.617 2572.882 C 1112.617 2571.782 1113.51 2570.89 1114.609 2570.89 L 1151.797 2570.89 C 1154.36 2570.89 1156.445 2568.806 1156.445 2566.242 C 1156.445 2563.679 1154.36 2561.593 1151.797 2561.593 L 1139.844 2561.593 C 1135.084 2561.593 1131.211 2557.721 1131.211 2552.961 C 1131.211 2548.201 1135.084 2544.328 1139.844 2544.328 L 1165.078 2544.328 C 1167.641 2544.328 1169.726 2542.243 1169.726 2539.679 C 1169.726 2537.116 1167.641 2535.031 1165.078 2535.031 L 1149.141 2535.031 C 1148.041 2535.031 1147.148 2534.14 1147.148 2533.039 C 1147.148 2531.939 1148.041 2531.047 1149.141 2531.047 L 1165.078 2531.047 C 1169.838 2531.047 1173.711 2534.92 1173.711 2539.679 Z " fill="rgb(255,255,255)"/><path d=" M 1115.273 2585.5 L 1070.117 2585.5 C 1068.65 2585.5 1067.461 2584.31 1067.461 2582.843 L 1067.461 2503.156 C 1067.461 2501.689 1068.65 2500.5 1070.117 2500.5 L 1115.273 2500.5 C 1116.741 2500.5 1117.93 2501.689 1117.93 2503.156 L 1117.93 2582.843 C 1117.93 2584.31 1116.741 2585.5 1115.273 2585.5 Z " fill="rgb(73,89,89)"/><path d=" M 1115.273 2585.5 L 1075.164 2585.5 C 1073.697 2585.5 1072.508 2584.31 1072.508 2582.843 L 1072.508 2503.156 C 1072.508 2501.689 1073.697 2500.5 1075.164 2500.5 L 1115.273 2500.5 C 1116.741 2500.5 1117.93 2501.689 1117.93 2503.156 L 1117.93 2582.843 C 1117.93 2584.31 1116.741 2585.5 1115.273 2585.5 Z " fill="rgb(96,120,130)"/><path d=" M 1117.93 2574.875 L 1067.461 2574.875 L 1067.461 2508.468 L 1117.93 2508.468 L 1117.93 2574.875 Z " fill="rgb(12,171,185)"/><path d=" M 1117.93 2574.875 L 1072.508 2574.875 L 1072.508 2508.468 L 1117.93 2508.468 L 1117.93 2574.875 Z " fill="rgb(42,187,199)"/><path d=" M 1095.352 2580.187 C 1095.352 2581.654 1094.163 2582.843 1092.695 2582.843 C 1091.228 2582.843 1090.039 2581.654 1090.039 2580.187 C 1090.039 2578.72 1091.228 2577.531 1092.695 2577.531 C 1094.163 2577.531 1095.352 2578.72 1095.352 2580.187 Z  M 1099.336 2503.156 L 1086.055 2503.156 C 1085.321 2503.156 1084.727 2503.752 1084.727 2504.484 C 1084.727 2505.218 1085.321 2505.812 1086.055 2505.812 L 1099.336 2505.812 C 1100.07 2505.812 1100.664 2505.218 1100.664 2504.484 C 1100.664 2503.752 1100.07 2503.156 1099.336 2503.156 Z " fill="rgb(73,89,89)"/><path d=" M 1112.617 2515.109 L 1112.617 2528.39 C 1112.617 2529.124 1112.023 2529.718 1111.289 2529.718 L 1071.445 2529.718 C 1070.712 2529.718 1070.117 2529.124 1070.117 2528.39 L 1070.117 2515.109 C 1070.117 2514.377 1070.712 2513.781 1071.445 2513.781 L 1111.289 2513.781 C 1112.023 2513.781 1112.617 2514.377 1112.617 2515.109 Z  M 1111.289 2532.375 L 1071.445 2532.375 C 1070.712 2532.375 1070.117 2532.97 1070.117 2533.703 L 1070.117 2546.984 C 1070.117 2547.718 1070.712 2548.312 1071.445 2548.312 L 1111.289 2548.312 C 1112.023 2548.312 1112.617 2547.718 1112.617 2546.984 L 1112.617 2533.703 C 1112.617 2532.97 1112.023 2532.375 1111.289 2532.375 Z  M 1111.289 2550.968 L 1071.445 2550.968 C 1070.712 2550.968 1070.117 2551.564 1070.117 2552.296 L 1070.117 2565.578 C 1070.117 2566.311 1070.712 2566.906 1071.445 2566.906 L 1111.289 2566.906 C 1112.023 2566.906 1112.617 2566.311 1112.617 2565.578 L 1112.617 2552.296 C 1112.617 2551.564 1112.023 2550.968 1111.289 2550.968 Z " fill="rgb(117,204,212)"/><path d=" M 1109.961 2562.257 C 1109.961 2563.358 1109.07 2564.25 1107.969 2564.25 C 1106.869 2564.25 1105.977 2563.358 1105.977 2562.257 C 1105.977 2561.158 1106.869 2560.265 1107.969 2560.265 C 1109.07 2560.265 1109.961 2561.158 1109.961 2562.257 Z  M 1079.414 2553.625 C 1076.48 2553.625 1074.102 2556.004 1074.102 2558.937 C 1074.102 2561.871 1076.48 2564.25 1079.414 2564.25 C 1082.348 2564.25 1084.727 2561.871 1084.727 2558.937 C 1084.727 2556.004 1082.348 2553.625 1079.414 2553.625 Z  M 1105.977 2554.156 C 1105.977 2553.863 1105.739 2553.625 1105.445 2553.625 L 1087.914 2553.625 C 1087.622 2553.625 1087.383 2553.863 1087.383 2554.156 L 1087.383 2557.078 C 1087.383 2557.371 1087.622 2557.609 1087.914 2557.609 L 1105.445 2557.609 C 1105.739 2557.609 1105.977 2557.371 1105.977 2557.078 L 1105.977 2554.156 Z  M 1100.133 2560.265 L 1087.914 2560.265 C 1087.622 2560.265 1087.383 2560.504 1087.383 2560.796 L 1087.383 2563.718 C 1087.383 2564.012 1087.622 2564.25 1087.914 2564.25 L 1100.133 2564.25 C 1100.426 2564.25 1100.664 2564.012 1100.664 2563.718 L 1100.664 2560.796 C 1100.664 2560.504 1100.426 2560.265 1100.133 2560.265 Z  M 1107.969 2527.062 C 1109.07 2527.062 1109.961 2526.171 1109.961 2525.07 C 1109.961 2523.97 1109.07 2523.078 1107.969 2523.078 C 1106.869 2523.078 1105.977 2523.97 1105.977 2525.07 C 1105.977 2526.171 1106.869 2527.062 1107.969 2527.062 Z  M 1079.414 2516.437 C 1076.48 2516.437 1074.102 2518.816 1074.102 2521.75 C 1074.102 2524.684 1076.48 2527.062 1079.414 2527.062 C 1082.348 2527.062 1084.727 2524.684 1084.727 2521.75 C 1084.727 2518.816 1082.348 2516.437 1079.414 2516.437 Z  M 1087.914 2520.422 L 1105.445 2520.422 C 1105.739 2520.422 1105.977 2520.184 1105.977 2519.89 L 1105.977 2516.968 C 1105.977 2516.676 1105.739 2516.437 1105.445 2516.437 L 1087.914 2516.437 C 1087.622 2516.437 1087.383 2516.676 1087.383 2516.968 L 1087.383 2519.89 C 1087.383 2520.184 1087.622 2520.422 1087.914 2520.422 Z  M 1087.914 2527.062 L 1100.133 2527.062 C 1100.426 2527.062 1100.664 2526.825 1100.664 2526.531 L 1100.664 2523.609 C 1100.664 2523.316 1100.426 2523.078 1100.133 2523.078 L 1087.914 2523.078 C 1087.622 2523.078 1087.383 2523.316 1087.383 2523.609 L 1087.383 2526.531 C 1087.383 2526.825 1087.622 2527.062 1087.914 2527.062 Z " fill="rgb(42,187,199)"/><path d=" M 1105.977 2545.656 L 1058.164 2545.656 C 1057.431 2545.656 1056.836 2545.061 1056.836 2544.328 L 1056.836 2523.078 C 1056.836 2522.345 1057.431 2521.75 1058.164 2521.75 L 1105.977 2521.75 C 1106.71 2521.75 1107.305 2522.345 1107.305 2523.078 L 1107.305 2544.328 C 1107.305 2545.061 1106.71 2545.656 1105.977 2545.656 Z " fill="rgb(215,49,49)"/><path d=" M 1105.977 2545.656 L 1063.477 2545.656 C 1062.743 2545.656 1062.149 2545.061 1062.149 2544.328 L 1062.149 2523.078 C 1062.149 2522.345 1062.743 2521.75 1063.477 2521.75 L 1105.977 2521.75 C 1106.71 2521.75 1107.305 2522.345 1107.305 2523.078 L 1107.305 2544.328 C 1107.305 2545.061 1106.71 2545.656 1105.977 2545.656 Z " fill="rgb(236,58,85)"/><path d=" M 1101.992 2525.601 L 1101.992 2528.523 C 1101.992 2528.817 1101.755 2529.054 1101.461 2529.054 L 1083.93 2529.054 C 1083.637 2529.054 1083.399 2528.817 1083.399 2528.523 L 1083.399 2525.601 C 1083.399 2525.309 1083.637 2525.07 1083.93 2525.07 L 1101.461 2525.07 C 1101.755 2525.07 1101.992 2525.308 1101.992 2525.601 Z  M 1096.148 2531.711 L 1083.93 2531.711 C 1083.637 2531.711 1083.399 2531.949 1083.399 2532.242 L 1083.399 2535.164 C 1083.399 2535.457 1083.637 2535.695 1083.93 2535.695 L 1096.148 2535.695 C 1096.442 2535.695 1096.68 2535.457 1096.68 2535.164 L 1096.68 2532.242 C 1096.68 2531.949 1096.442 2531.711 1096.148 2531.711 Z  M 1100 2538.351 C 1098.9 2538.351 1098.008 2539.244 1098.008 2540.343 C 1098.008 2541.444 1098.9 2542.336 1100 2542.336 C 1101.101 2542.336 1101.992 2541.444 1101.992 2540.343 C 1101.992 2539.244 1101.101 2538.351 1100 2538.351 Z " fill="rgb(166,43,43)"/><path d=" M 1078.086 2533.703 C 1078.086 2538.838 1073.924 2543 1068.789 2543 C 1063.655 2543 1059.492 2538.838 1059.492 2533.703 C 1059.492 2528.569 1063.655 2524.406 1068.789 2524.406 C 1073.924 2524.406 1078.086 2528.569 1078.086 2533.703 Z " fill="rgb(255,245,245)"/><path d=" M 1074.102 2534.234 C 1074.835 2534.234 1075.43 2534.83 1075.43 2535.562 C 1075.43 2536.296 1074.835 2536.89 1074.102 2536.89 C 1074.835 2536.89 1075.43 2537.486 1075.43 2538.218 C 1075.43 2538.952 1074.835 2539.546 1074.102 2539.546 L 1063.477 2539.546 C 1062.743 2539.546 1062.149 2538.952 1062.149 2538.218 C 1062.149 2537.486 1062.743 2536.89 1063.477 2536.89 C 1062.743 2536.89 1062.149 2536.296 1062.149 2535.562 C 1062.149 2534.83 1062.743 2534.234 1063.477 2534.234 C 1062.743 2534.234 1062.149 2533.639 1062.149 2532.906 C 1062.149 2529.239 1065.122 2526.265 1068.789 2526.265 C 1072.457 2526.265 1075.43 2529.239 1075.43 2532.906 C 1075.43 2533.639 1074.835 2534.234 1074.102 2534.234 Z " fill="rgb(248,187,94)"/><path d=" M 1074.102 2536.89 L 1063.477 2536.89 C 1062.743 2536.89 1062.149 2536.296 1062.149 2535.562 C 1062.149 2534.83 1062.743 2534.234 1063.477 2534.234 L 1074.102 2534.234 C 1074.835 2534.234 1075.43 2534.83 1075.43 2535.562 C 1075.43 2536.296 1074.835 2536.89 1074.102 2536.89 Z " fill="rgb(146,91,68)"/><path d=" M 1070.777 2534.234 C 1070.777 2534.506 1070.673 2534.778 1070.466 2534.986 L 1068.212 2537.24 C 1067.797 2537.655 1067.125 2537.655 1066.71 2537.24 L 1064.456 2534.986 C 1064.249 2534.779 1064.145 2534.507 1064.145 2534.234 L 1070.777 2534.234 Z " fill="rgb(252,147,2)"/><path d=" M 1169.247 2504.612 C 1161.622 2513.132 1155.189 2522.649 1150.422 2533.043 L 1149.956 2534.06 C 1149.345 2535.393 1147.451 2535.393 1146.84 2534.06 C 1141.892 2523.27 1135.261 2513.361 1127.411 2504.457 C 1123.344 2499.844 1120.774 2493.88 1120.461 2487.324 C 1119.674 2470.831 1133.445 2457.149 1149.933 2458.041 C 1164.666 2458.838 1176.367 2471.037 1176.367 2485.969 C 1176.367 2493.132 1173.676 2499.664 1169.247 2504.612 L 1169.247 2504.612 Z " fill="rgb(236,38,67)"/><path d=" M 1169.247 2504.612 C 1162.239 2512.443 1156.241 2521.118 1151.615 2530.54 C 1146.887 2521.107 1140.868 2512.383 1133.88 2504.457 C 1129.812 2499.844 1127.243 2493.88 1126.93 2487.324 C 1126.22 2472.445 1137.359 2459.856 1151.65 2458.19 C 1165.565 2459.801 1176.367 2471.622 1176.367 2485.969 C 1176.367 2493.132 1173.676 2499.664 1169.247 2504.612 Z " fill="rgb(249,62,90)"/><path d=" M 1164.804 2469.563 C 1173.865 2478.624 1173.865 2493.314 1164.804 2502.376 C 1155.743 2511.436 1141.052 2511.436 1131.992 2502.376 C 1122.931 2493.314 1122.931 2478.624 1131.992 2469.563 C 1141.052 2460.502 1155.743 2460.502 1164.804 2469.563 Z " fill="rgb(151,5,28)"/><path d=" M 1161.046 2484.545 L 1155.344 2484.545 L 1153.987 2480.285 C 1153.636 2479.183 1152.613 2478.435 1151.457 2478.435 L 1145.429 2478.435 C 1144.286 2478.435 1143.271 2479.167 1142.91 2480.251 L 1141.478 2484.545 L 1135.749 2484.545 C 1134.869 2484.545 1134.156 2485.258 1134.156 2486.138 L 1134.156 2499.198 C 1134.156 2500.077 1134.869 2500.791 1135.749 2500.791 L 1161.046 2500.791 C 1161.926 2500.791 1162.64 2500.077 1162.64 2499.198 L 1162.64 2486.138 C 1162.64 2485.258 1161.927 2484.545 1161.046 2484.545 L 1161.046 2484.545 Z  M 1150.655 2483.385 L 1146.141 2483.385 C 1145.5 2483.385 1144.98 2482.865 1144.98 2482.224 C 1144.98 2481.583 1145.5 2481.063 1146.141 2481.063 L 1150.655 2481.063 C 1151.297 2481.063 1151.816 2481.583 1151.816 2482.224 C 1151.816 2482.865 1151.297 2483.385 1150.655 2483.385 Z  M 1135.105 2476.818 C 1135.105 2474.069 1137.341 2471.833 1140.091 2471.833 L 1150.059 2471.833 C 1151.238 2471.833 1152.195 2470.874 1152.195 2469.697 C 1152.195 2468.519 1151.238 2467.56 1150.059 2467.56 C 1149.272 2467.56 1148.635 2466.923 1148.635 2466.136 C 1148.635 2465.349 1149.272 2464.712 1150.059 2464.712 C 1152.808 2464.712 1155.044 2466.948 1155.044 2469.697 C 1155.044 2472.445 1152.808 2474.681 1150.059 2474.681 L 1140.091 2474.681 C 1138.912 2474.681 1137.954 2475.64 1137.954 2476.818 C 1137.954 2477.995 1138.912 2478.954 1140.091 2478.954 C 1140.877 2478.954 1141.514 2479.591 1141.514 2480.378 C 1141.514 2481.165 1140.877 2481.802 1140.091 2481.802 C 1137.341 2481.802 1135.105 2479.566 1135.105 2476.818 Z " fill="rgb(255,245,245)"/></g></svg>