<?xml version="1.0" encoding="UTF-8" standalone="no"?><!-- Generator: Gravit.io --><svg xmlns="http://www.w3.org/2000/svg" xmlns:xlink="http://www.w3.org/1999/xlink" style="isolation:isolate" viewBox="59.4 247 59.1 53.727" width="59.1pt" height="53.727pt"><g><path d=" M 115.813 281.923 L 62.086 281.923 C 60.609 281.923 59.4 280.714 59.4 279.236 L 59.4 249.686 C 59.4 248.209 60.609 247 62.086 247 L 115.814 247 C 117.291 247 118.5 248.209 118.5 249.686 L 118.5 279.236 C 118.5 280.714 117.291 281.923 115.813 281.923 Z " fill="rgb(14,147,71)"/><path d=" M 109.098 271.177 C 106.008 271.177 103.188 272.655 101.576 275.072 C 100.233 274.401 98.755 273.864 97.009 273.864 C 92.308 273.864 88.413 277.356 87.741 281.923 L 115.813 281.923 C 117.157 281.923 118.231 280.983 118.5 279.639 C 117.963 274.938 113.933 271.177 109.098 271.177 Z " fill="rgb(13,137,68)"/><path d=" M 110.441 279.236 L 67.459 279.236 C 67.459 276.281 65.041 273.864 62.086 273.864 L 62.086 255.059 C 65.041 255.059 67.459 252.642 67.459 249.687 L 110.441 249.687 C 110.441 252.642 112.859 255.059 115.813 255.059 L 115.813 273.864 C 112.859 273.864 110.441 276.281 110.441 279.236 Z " fill="rgb(59,181,74)"/><g><path d=" M 109.098 271.177 C 106.008 271.177 103.188 272.655 101.576 275.072 C 100.233 274.401 98.755 273.864 97.009 273.864 C 93.248 273.864 90.024 276.013 88.547 279.236 L 110.441 279.236 C 110.441 276.281 112.724 273.998 115.679 273.864 C 113.933 272.252 111.65 271.177 109.098 271.177 Z " fill="rgb(14,147,71)"/><ellipse vector-effect="non-scaling-stroke" cx="88.94993648449446" cy="264.4613644406898" rx="10.745446161233417" ry="12.088583645330843" fill="rgb(14,147,71)"/></g><path d=" M 90.293 263.118 L 87.607 263.118 C 86.801 263.118 86.264 262.581 86.264 261.775 C 86.264 260.969 86.801 260.432 87.607 260.432 L 91.636 260.432 C 92.442 260.432 92.979 259.895 92.979 259.089 C 92.979 258.283 92.442 257.746 91.636 257.746 L 90.293 257.746 C 90.293 256.94 89.756 256.403 88.95 256.403 C 88.144 256.403 87.607 256.94 87.607 257.746 C 85.323 257.746 83.577 259.492 83.577 261.775 C 83.577 264.059 85.323 265.805 87.607 265.805 L 90.293 265.805 C 91.099 265.805 91.636 266.342 91.636 267.148 C 91.636 267.954 91.099 268.491 90.293 268.491 L 86.264 268.491 C 85.458 268.491 84.921 269.028 84.921 269.834 C 84.921 270.64 85.458 271.177 86.264 271.177 L 87.607 271.177 C 87.607 271.983 88.144 272.52 88.95 272.52 C 89.756 272.52 90.293 271.983 90.293 271.177 C 92.576 271.177 94.323 269.431 94.323 267.148 C 94.323 264.864 92.576 263.118 90.293 263.118 Z " fill="rgb(137,199,99)"/><circle vector-effect="non-scaling-stroke" cx="94.32260185036873" cy="283.26598179496216" r="9.402308677136006" fill="rgb(255,202,93)"/><circle vector-effect="non-scaling-stroke" cx="106.41130092518414" cy="280.57959139728257" r="9.402308677136006" fill="rgb(246,181,69)"/><path d=" M 106.411 271.177 C 101.173 271.177 97.009 275.341 97.009 280.58 C 97.009 285.818 101.173 289.982 106.411 289.982 C 111.65 289.982 115.814 285.818 115.814 280.58 C 115.814 275.341 111.65 271.177 106.411 271.177 Z  M 106.411 287.296 C 102.65 287.296 99.695 284.341 99.695 280.58 C 99.695 276.819 102.65 273.864 106.411 273.864 C 110.172 273.864 113.127 276.819 113.127 280.58 C 113.127 284.341 110.172 287.296 106.411 287.296 Z " fill="rgb(255,203,91)"/><path d=" M 106.411 289.848 L 106.411 289.848 C 111.65 289.982 115.814 285.684 115.814 280.58 L 115.679 280.58 C 115.008 280.58 114.47 281.117 114.336 281.788 C 114.068 283.669 113.127 285.415 111.784 286.624 C 110.71 287.698 109.232 288.37 107.62 288.639 C 106.949 288.639 106.411 289.176 106.411 289.848 Z " fill="rgb(246,181,69)"/><path d=" M 106.411 271.312 L 106.411 271.312 C 101.173 271.177 97.009 275.476 97.009 280.58 L 97.143 280.58 C 97.815 280.58 98.352 280.042 98.486 279.371 C 98.755 277.49 99.695 275.744 101.039 274.535 C 102.113 273.461 103.591 272.789 105.202 272.52 C 105.874 272.521 106.411 271.983 106.411 271.312 Z " fill="rgb(255,226,122)"/><path d=" M 100.636 281.52 C 100.636 277.759 103.591 274.804 107.351 274.804 C 108.963 274.804 110.441 275.341 111.65 276.416 C 110.306 274.804 108.56 273.864 106.411 273.864 C 102.65 273.864 99.695 276.819 99.695 280.58 C 99.695 282.729 100.636 284.475 102.113 285.684 C 101.173 284.609 100.636 283.132 100.636 281.52 Z " fill="rgb(241,153,32)"/><path d=" M 110.441 284.743 C 110.306 284.743 110.172 284.743 110.038 284.609 C 109.769 284.341 109.769 283.938 110.038 283.669 C 110.844 282.863 111.247 281.654 111.247 280.58 C 111.247 280.177 111.515 279.908 111.918 279.908 C 112.321 279.908 112.59 280.177 112.59 280.58 C 112.59 282.057 112.053 283.535 111.112 284.609 C 110.844 284.743 110.575 284.743 110.441 284.743 Z " fill="rgb(255,203,91)"/><g><path d=" M 106.411 284.609 C 105.605 284.609 105.068 284.072 105.068 283.266 L 105.068 277.893 C 105.068 277.087 105.605 276.55 106.411 276.55 C 107.217 276.55 107.754 277.088 107.754 277.893 L 107.754 283.266 C 107.754 284.072 107.217 284.609 106.411 284.609 Z " fill="rgb(241,153,32)"/><path d=" M 111.381 288.504 C 110.441 285.146 108.023 282.46 104.934 281.251 C 104.396 278.162 102.382 275.476 99.83 273.864 C 98.218 275.61 97.143 277.893 97.143 280.445 C 97.143 285.684 101.307 289.848 106.546 289.848 C 108.292 289.982 109.904 289.445 111.381 288.504 Z " fill="rgb(241,153,32)"/></g><g><path d=" M 102.113 285.684 C 101.173 284.475 100.501 282.997 100.501 281.386 C 100.501 279.505 101.307 277.759 102.65 276.55 C 102.382 276.147 102.113 275.878 101.844 275.61 C 100.501 276.819 99.695 278.565 99.695 280.58 C 99.695 282.729 100.636 284.475 102.113 285.684 Z " fill="rgb(231,136,37)"/><path d=" M 105.068 281.386 L 105.068 283.266 C 105.068 284.072 105.605 284.609 106.411 284.609 C 107.217 284.609 107.754 284.072 107.754 283.266 L 107.754 282.997 C 106.949 282.326 106.008 281.788 105.068 281.386 Z " fill="rgb(231,136,37)"/></g><path d=" M 111.381 288.504 C 111.112 287.564 110.844 286.758 110.306 285.952 C 109.232 286.758 107.889 287.295 106.411 287.295 C 102.65 287.295 99.695 284.34 99.695 280.579 C 99.695 278.565 100.501 276.819 101.844 275.61 C 101.173 274.938 100.501 274.401 99.695 273.998 C 98.084 275.744 97.009 278.027 97.009 280.579 C 97.009 285.818 101.173 289.982 106.411 289.982 C 108.292 289.982 109.904 289.445 111.381 288.504 Z " fill="rgb(246,181,69)"/><path d=" M 110.978 287.296 C 110.038 287.967 108.829 288.37 107.62 288.639 C 106.949 288.773 106.411 289.31 106.411 289.982 L 106.411 289.982 C 108.292 289.982 109.904 289.444 111.381 288.504 C 111.247 288.101 111.112 287.698 110.978 287.296 Z " fill="rgb(241,153,32)"/><path d=" M 99.695 273.998 C 98.084 275.744 97.009 278.028 97.009 280.58 L 97.143 280.58 C 97.815 280.58 98.352 280.042 98.486 279.371 C 98.755 277.49 99.695 275.878 100.904 274.67 C 100.501 274.535 100.098 274.267 99.695 273.998 Z " fill="rgb(255,203,91)"/><circle vector-effect="non-scaling-stroke" cx="94.32260185036873" cy="283.26598179496216" r="9.402308677136006" fill="rgb(246,181,69)"/><path d=" M 92.979 289.982 C 92.979 290.922 93.114 291.728 93.382 292.668 C 93.651 292.668 94.054 292.668 94.323 292.668 C 99.561 292.668 103.725 288.504 103.725 283.266 C 103.725 282.326 103.591 281.52 103.322 280.579 C 103.053 280.579 102.65 280.579 102.382 280.579 C 97.143 280.58 92.979 284.743 92.979 289.982 Z " fill="rgb(241,153,32)"/><path d=" M 94.323 273.864 C 89.084 273.864 84.92 278.028 84.92 283.266 C 84.92 288.504 89.084 292.668 94.323 292.668 C 99.561 292.668 103.725 288.504 103.725 283.266 C 103.725 278.028 99.561 273.864 94.323 273.864 Z  M 94.323 289.982 C 90.562 289.982 87.607 287.027 87.607 283.266 C 87.607 279.505 90.562 276.55 94.323 276.55 C 98.084 276.55 101.039 279.505 101.039 283.266 C 101.039 287.027 98.084 289.982 94.323 289.982 Z " fill="rgb(255,203,91)"/><path d=" M 94.323 292.534 L 94.323 292.534 C 99.561 292.668 103.725 288.37 103.725 283.266 L 103.591 283.266 C 102.919 283.266 102.382 283.803 102.247 284.475 C 101.979 286.355 101.039 288.101 99.695 289.31 C 98.621 290.385 97.143 291.056 95.531 291.325 C 94.86 291.325 94.323 291.862 94.323 292.534 Z " fill="rgb(246,181,69)"/><path d=" M 94.323 273.998 L 94.323 273.998 C 89.084 273.864 84.92 278.162 84.92 283.266 L 85.055 283.266 C 85.726 283.266 86.264 282.729 86.398 282.057 C 86.666 280.177 87.607 278.431 88.95 277.222 C 90.024 276.147 91.502 275.476 93.114 275.207 C 93.785 275.207 94.323 274.67 94.323 273.998 Z " fill="rgb(255,226,122)"/><path d=" M 88.547 284.206 C 88.547 280.445 91.502 277.49 95.263 277.49 C 96.875 277.49 98.352 278.028 99.561 279.102 C 98.218 277.49 96.472 276.55 94.323 276.55 C 90.562 276.55 87.607 279.505 87.607 283.266 C 87.607 285.415 88.547 287.161 90.024 288.37 C 89.084 287.296 88.547 285.818 88.547 284.206 Z " fill="rgb(241,153,32)"/><path d=" M 98.352 287.43 C 98.218 287.43 98.084 287.43 97.949 287.295 C 97.681 287.027 97.681 286.624 97.949 286.355 C 98.755 285.549 99.158 284.34 99.158 283.266 C 99.158 282.863 99.427 282.594 99.83 282.594 C 100.233 282.594 100.501 282.863 100.501 283.266 C 100.501 284.743 99.964 286.221 99.024 287.295 C 98.755 287.43 98.486 287.43 98.352 287.43 Z " fill="rgb(255,203,91)"/><path d=" M 94.323 287.296 C 93.517 287.296 92.979 286.758 92.979 285.952 L 92.979 280.58 C 92.979 279.774 93.517 279.237 94.323 279.237 C 95.129 279.237 95.666 279.774 95.666 280.58 L 95.666 285.952 C 95.666 286.758 95.129 287.296 94.323 287.296 Z " fill="rgb(241,153,32)"/><g><path d=" M 100.501 280.714 C 100.77 281.52 101.039 282.326 101.039 283.266 C 101.039 287.027 98.084 289.982 94.323 289.982 C 93.92 289.982 93.383 289.982 92.98 289.847 L 92.98 289.982 C 92.98 290.922 93.114 291.728 93.383 292.668 C 93.651 292.668 94.054 292.668 94.323 292.668 C 99.561 292.668 103.725 288.504 103.725 283.266 C 103.725 282.326 103.591 281.52 103.322 280.579 C 103.053 280.579 102.65 280.579 102.382 280.579 C 101.71 280.58 101.173 280.58 100.501 280.714 Z " fill="rgb(246,181,69)"/><circle vector-effect="non-scaling-stroke" cx="101.03852012982532" cy="291.325037558516" r="9.402308677136006" fill="rgb(246,181,69)"/></g><path d=" M 101.039 281.923 C 95.8 281.923 91.636 286.087 91.636 291.325 C 91.636 296.563 95.8 300.727 101.039 300.727 C 106.277 300.727 110.441 296.563 110.441 291.325 C 110.441 286.087 106.277 281.923 101.039 281.923 Z  M 101.039 298.041 C 97.278 298.041 94.323 295.086 94.323 291.325 C 94.323 287.564 97.278 284.609 101.039 284.609 C 104.799 284.609 107.754 287.564 107.754 291.325 C 107.754 295.086 104.799 298.041 101.039 298.041 Z " fill="rgb(255,203,91)"/><path d=" M 101.039 300.593 L 101.039 300.593 C 106.277 300.727 110.441 296.429 110.441 291.325 L 110.306 291.325 C 109.635 291.325 109.098 291.862 108.963 292.534 C 108.695 294.414 107.754 296.16 106.411 297.369 C 105.337 298.444 103.859 299.115 102.247 299.384 C 101.576 299.384 101.039 299.921 101.039 300.593 Z " fill="rgb(246,181,69)"/><path d=" M 101.039 282.057 L 101.039 282.057 C 95.8 281.923 91.636 286.221 91.636 291.325 L 91.771 291.325 C 92.442 291.325 92.979 290.788 93.114 290.116 C 93.382 288.236 94.323 286.49 95.666 285.281 C 96.74 284.206 98.218 283.535 99.83 283.266 C 100.501 283.266 101.039 282.729 101.039 282.057 Z " fill="rgb(255,226,122)"/><path d=" M 95.263 292.265 C 95.263 288.504 98.218 285.549 101.979 285.549 C 103.591 285.549 105.068 286.087 106.277 287.161 C 104.934 285.549 103.188 284.609 101.039 284.609 C 97.278 284.609 94.323 287.564 94.323 291.325 C 94.323 293.474 95.263 295.22 96.74 296.429 C 95.8 295.355 95.263 293.877 95.263 292.265 Z " fill="rgb(241,153,32)"/><path d=" M 105.068 295.489 C 104.934 295.489 104.799 295.489 104.665 295.354 C 104.396 295.086 104.396 294.683 104.665 294.414 C 105.471 293.608 105.874 292.399 105.874 291.325 C 105.874 290.922 106.143 290.653 106.546 290.653 C 106.949 290.653 107.217 290.922 107.217 291.325 C 107.217 292.802 106.68 294.28 105.74 295.354 C 105.471 295.489 105.202 295.489 105.068 295.489 Z " fill="rgb(255,203,91)"/><path d=" M 101.039 295.355 C 100.233 295.355 99.695 294.817 99.695 294.011 L 99.695 288.639 C 99.695 287.833 100.233 287.296 101.039 287.296 C 101.844 287.296 102.382 287.833 102.382 288.639 L 102.382 294.011 C 102.382 294.817 101.844 295.355 101.039 295.355 Z " fill="rgb(241,153,32)"/></g></svg>