<?xml version="1.0" standalone="no"?><!-- Generator: Gravit.io --><svg xmlns="http://www.w3.org/2000/svg" xmlns:xlink="http://www.w3.org/1999/xlink" style="isolation:isolate" viewBox="0 -296 1500 1415.38" width="1500" height="1415.38"><g id="Group"><path d=" M 75 -295.997 C 38.699 -295.736 35.566 -279.157 0 -279.157 L 0 -234.054 C 26.743 -234.054 39.689 -250.895 75 -250.895 C 111.162 -250.895 114.679 -234.054 150 -234.054 C 186.162 -234.054 190.53 -250.895 225 -250.895 C 262.031 -250.895 265.53 -234.054 300 -234.054 C 335.312 -234.054 341.36 -250.895 375 -250.895 C 409.481 -250.895 415.53 -234.054 450 -234.054 C 485.312 -234.054 489.679 -250.895 525 -250.895 C 562.003 -250.895 566.36 -234.054 600 -234.054 C 634.481 -234.054 644.734 -250.895 675 -250.895 C 706.108 -250.895 710.656 -234.054 750 -234.054 C 776.743 -234.054 789.689 -250.895 825 -250.895 C 861.162 -250.895 864.679 -234.054 900 -234.054 C 936.162 -234.054 940.53 -250.895 975 -250.895 C 1012.031 -250.895 1015.53 -234.054 1050 -234.054 C 1085.312 -234.054 1091.36 -250.895 1125 -250.895 C 1159.481 -250.895 1165.53 -234.054 1200 -234.054 C 1235.312 -234.054 1239.679 -250.895 1275 -250.895 C 1312.003 -250.895 1316.36 -234.054 1350 -234.054 C 1384.481 -234.054 1394.734 -250.895 1425 -250.895 C 1456.108 -250.895 1460.656 -234.054 1500 -234.054 L 1500 -279.157 C 1468.459 -279.157 1459.728 -295.997 1425 -295.997 C 1391.114 -295.997 1380.56 -279.157 1350 -279.157 C 1318.602 -279.157 1310.568 -295.997 1275 -295.997 C 1238.592 -295.997 1233.046 -279.157 1200 -279.157 C 1167.795 -279.157 1161.409 -295.997 1125 -295.997 C 1089.433 -295.997 1084.717 -279.157 1050 -279.157 C 1016.124 -279.157 1013.124 -295.997 975 -295.997 C 937.717 -295.997 931.819 -279.157 900 -279.157 C 867.342 -279.157 861.302 -296.258 825 -295.997 C 788.699 -295.736 785.566 -279.157 750 -279.157 C 718.459 -279.157 709.728 -295.997 675 -295.997 C 641.114 -295.997 630.56 -279.157 600 -279.157 C 568.602 -279.157 560.568 -295.997 525 -295.997 C 488.592 -295.997 483.046 -279.157 450 -279.157 C 417.795 -279.157 411.409 -295.997 375 -295.997 C 339.433 -295.997 334.717 -279.157 300 -279.157 C 266.124 -279.157 263.124 -295.997 225 -295.997 C 187.717 -295.997 181.819 -279.157 150 -279.157 C 117.342 -279.157 111.302 -296.258 75 -295.997 L 75 -295.997 Z  M 75 -205.792 C 38.699 -205.531 35.566 -188.952 0 -188.952 L 0 -143.868 C 26.743 -143.868 39.689 -160.709 75 -160.709 C 111.162 -160.709 114.679 -143.868 150 -143.868 C 186.162 -143.868 190.53 -160.709 225 -160.709 C 262.031 -160.709 265.53 -143.868 300 -143.868 C 335.312 -143.868 341.36 -160.709 375 -160.709 C 409.481 -160.709 415.53 -143.868 450 -143.868 C 485.312 -143.868 489.679 -160.709 525 -160.709 C 562.003 -160.709 566.36 -143.868 600 -143.868 C 634.481 -143.868 644.734 -160.709 675 -160.709 C 706.108 -160.709 710.656 -143.868 750 -143.868 C 776.743 -143.868 789.689 -160.709 825 -160.709 C 861.162 -160.709 864.679 -143.868 900 -143.868 C 936.162 -143.868 940.53 -160.709 975 -160.709 C 1012.031 -160.709 1015.53 -143.868 1050 -143.868 C 1085.312 -143.868 1091.36 -160.709 1125 -160.709 C 1159.481 -160.709 1165.53 -143.868 1200 -143.868 C 1235.312 -143.868 1239.679 -160.709 1275 -160.709 C 1312.003 -160.709 1316.36 -143.868 1350 -143.868 C 1384.481 -143.868 1394.734 -160.709 1425 -160.709 C 1456.108 -160.709 1460.656 -143.868 1500 -143.868 L 1500 -188.952 C 1468.459 -188.952 1459.728 -205.792 1425 -205.792 C 1391.114 -205.792 1380.56 -188.952 1350 -188.952 C 1318.602 -188.952 1310.568 -205.792 1275 -205.792 C 1238.592 -205.792 1233.046 -188.952 1200 -188.952 C 1167.795 -188.952 1161.409 -205.792 1125 -205.792 C 1089.433 -205.792 1084.717 -188.952 1050 -188.952 C 1016.124 -188.952 1013.124 -205.792 975 -205.792 C 937.717 -205.792 931.819 -188.952 900 -188.952 C 867.342 -188.952 861.302 -206.054 825 -205.792 C 788.699 -205.531 785.566 -188.952 750 -188.952 C 718.459 -188.952 709.728 -205.792 675 -205.792 C 641.114 -205.792 630.56 -188.952 600 -188.952 C 568.602 -188.952 560.568 -205.792 525 -205.792 C 488.592 -205.792 483.046 -188.952 450 -188.952 C 417.795 -188.952 411.409 -205.792 375 -205.792 C 339.433 -205.792 334.717 -188.952 300 -188.952 C 266.124 -188.952 263.124 -205.792 225 -205.792 C 187.717 -205.792 181.819 -188.952 150 -188.952 C 117.342 -188.952 111.302 -206.054 75 -205.792 L 75 -205.792 Z  M 75 -115.568 C 38.699 -115.307 35.566 -98.727 0 -98.727 L 0 -53.625 C 26.743 -53.625 39.689 -70.465 75 -70.465 C 111.162 -70.465 114.679 -53.625 150 -53.625 C 186.162 -53.625 190.53 -70.465 225 -70.465 C 262.031 -70.465 265.53 -53.625 300 -53.625 C 335.312 -53.625 341.36 -70.465 375 -70.465 C 409.481 -70.465 415.53 -53.625 450 -53.625 C 485.312 -53.625 489.679 -70.465 525 -70.465 C 562.003 -70.465 566.36 -53.625 600 -53.625 C 634.481 -53.625 644.734 -70.465 675 -70.465 C 706.108 -70.465 710.656 -53.625 750 -53.625 C 776.743 -53.625 789.689 -70.465 825 -70.465 C 861.162 -70.465 864.679 -53.625 900 -53.625 C 936.162 -53.625 940.53 -70.465 975 -70.465 C 1012.031 -70.465 1015.53 -53.625 1050 -53.625 C 1085.312 -53.625 1091.36 -70.465 1125 -70.465 C 1159.481 -70.465 1165.53 -53.625 1200 -53.625 C 1235.312 -53.625 1239.679 -70.465 1275 -70.465 C 1312.003 -70.465 1316.36 -53.625 1350 -53.625 C 1384.481 -53.625 1394.734 -70.465 1425 -70.465 C 1456.108 -70.465 1460.656 -53.625 1500 -53.625 L 1500 -98.727 C 1468.459 -98.727 1459.728 -115.568 1425 -115.568 C 1391.114 -115.568 1380.56 -98.727 1350 -98.727 C 1318.602 -98.727 1310.568 -115.568 1275 -115.568 C 1238.592 -115.568 1233.046 -98.727 1200 -98.727 C 1167.795 -98.727 1161.409 -115.568 1125 -115.568 C 1089.433 -115.568 1084.717 -98.727 1050 -98.727 C 1016.124 -98.727 1013.124 -115.568 975 -115.568 C 937.717 -115.568 931.819 -98.727 900 -98.727 C 867.342 -98.727 861.302 -115.829 825 -115.568 C 788.699 -115.307 785.566 -98.727 750 -98.727 C 718.459 -98.727 709.728 -115.568 675 -115.568 C 641.114 -115.568 630.56 -98.727 600 -98.727 C 568.602 -98.727 560.568 -115.568 525 -115.568 C 488.592 -115.568 483.046 -98.727 450 -98.727 C 417.795 -98.727 411.409 -115.568 375 -115.568 C 339.433 -115.568 334.717 -98.727 300 -98.727 C 266.124 -98.727 263.124 -115.568 225 -115.568 C 187.717 -115.568 181.819 -98.727 150 -98.727 C 117.342 -98.727 111.302 -115.829 75 -115.568 L 75 -115.568 Z  M 75 -25.363 C 38.699 -25.102 35.566 -8.522 0 -8.522 L 0 36.561 C 26.743 36.561 39.689 19.72 75 19.72 C 111.162 19.72 114.679 36.561 150 36.561 C 186.162 36.561 190.53 19.72 225 19.72 C 262.031 19.72 265.53 36.561 300 36.561 C 335.312 36.561 341.36 19.72 375 19.72 C 409.481 19.72 415.53 36.561 450 36.561 C 485.312 36.561 489.679 19.72 525 19.72 C 562.003 19.72 566.36 36.561 600 36.561 C 634.481 36.561 644.734 19.72 675 19.72 C 706.108 19.72 710.656 36.561 750 36.561 C 776.743 36.561 789.689 19.72 825 19.72 C 861.162 19.72 864.679 36.561 900 36.561 C 936.162 36.561 940.53 19.72 975 19.72 C 1012.031 19.72 1015.53 36.561 1050 36.561 C 1085.312 36.561 1091.36 19.72 1125 19.72 C 1159.481 19.72 1165.53 36.561 1200 36.561 C 1235.312 36.561 1239.679 19.72 1275 19.72 C 1312.003 19.72 1316.36 36.561 1350 36.561 C 1384.481 36.561 1394.734 19.72 1425 19.72 C 1456.108 19.72 1460.656 36.561 1500 36.561 L 1500 -8.522 C 1468.459 -8.522 1459.728 -25.363 1425 -25.363 C 1391.114 -25.363 1380.56 -8.522 1350 -8.522 C 1318.602 -8.522 1310.568 -25.363 1275 -25.363 C 1238.592 -25.363 1233.046 -8.522 1200 -8.522 C 1167.795 -8.522 1161.409 -25.363 1125 -25.363 C 1089.433 -25.363 1084.717 -8.522 1050 -8.522 C 1016.124 -8.522 1013.124 -25.363 975 -25.363 C 937.717 -25.363 931.819 -8.522 900 -8.522 C 867.342 -8.522 861.302 -25.624 825 -25.363 C 788.699 -25.102 785.566 -8.522 750 -8.522 C 718.459 -8.522 709.728 -25.363 675 -25.363 C 641.114 -25.363 630.56 -8.522 600 -8.522 C 568.602 -8.522 560.568 -25.363 525 -25.363 C 488.592 -25.363 483.046 -8.522 450 -8.522 C 417.795 -8.522 411.409 -25.363 375 -25.363 C 339.433 -25.363 334.717 -8.522 300 -8.522 C 266.124 -8.522 263.124 -25.363 225 -25.363 C 187.717 -25.363 181.819 -8.522 150 -8.522 C 117.342 -8.522 111.302 -25.624 75 -25.363 L 75 -25.363 Z  M 75 64.822 C 38.699 65.083 35.566 81.663 0 81.663 L 0 126.766 C 26.743 126.766 39.689 109.924 75 109.924 C 111.162 109.924 114.679 126.766 150 126.766 C 186.162 126.766 190.53 109.924 225 109.924 C 262.031 109.924 265.53 126.766 300 126.766 C 335.312 126.766 341.36 109.924 375 109.924 C 409.481 109.924 415.53 126.766 450 126.766 C 485.312 126.766 489.679 109.924 525 109.924 C 562.003 109.924 566.36 126.766 600 126.766 C 634.481 126.766 644.734 109.924 675 109.924 C 706.108 109.924 710.656 126.766 750 126.766 C 776.743 126.766 789.689 109.924 825 109.924 C 861.162 109.924 864.679 126.766 900 126.766 C 936.162 126.766 940.53 109.924 975 109.924 C 1012.031 109.924 1015.53 126.766 1050 126.766 C 1085.312 126.766 1091.36 109.924 1125 109.924 C 1159.481 109.924 1165.53 126.766 1200 126.766 C 1235.312 126.766 1239.679 109.924 1275 109.924 C 1312.003 109.924 1316.36 126.766 1350 126.766 C 1384.481 126.766 1394.734 109.924 1425 109.924 C 1456.108 109.924 1460.656 126.766 1500 126.766 L 1500 81.663 C 1468.459 81.663 1459.728 64.822 1425 64.822 C 1391.114 64.822 1380.56 81.663 1350 81.663 C 1318.602 81.663 1310.568 64.822 1275 64.822 C 1238.592 64.822 1233.046 81.663 1200 81.663 C 1167.795 81.663 1161.409 64.822 1125 64.822 C 1089.433 64.822 1084.717 81.663 1050 81.663 C 1016.124 81.663 1013.124 64.822 975 64.822 C 937.717 64.822 931.819 81.663 900 81.663 C 867.342 81.663 861.302 64.561 825 64.822 C 788.699 65.083 785.566 81.663 750 81.663 C 718.459 81.663 709.728 64.822 675 64.822 C 641.114 64.822 630.56 81.663 600 81.663 C 568.602 81.663 560.568 64.822 525 64.822 C 488.592 64.822 483.046 81.663 450 81.663 C 417.795 81.663 411.409 64.822 375 64.822 C 339.433 64.822 334.717 81.663 300 81.663 C 266.124 81.663 263.124 64.822 225 64.822 C 187.717 64.822 181.819 81.663 150 81.663 C 117.342 81.663 111.302 64.561 75 64.822 L 75 64.822 Z  M 75 155.027 C 38.699 155.288 35.566 171.868 0 171.868 L 0 216.951 C 26.743 216.951 39.689 200.11 75 200.11 C 111.162 200.11 114.679 216.951 150 216.951 C 186.162 216.951 190.53 200.11 225 200.11 C 262.031 200.11 265.53 216.951 300 216.951 C 335.312 216.951 341.36 200.11 375 200.11 C 409.481 200.11 415.53 216.951 450 216.951 C 485.312 216.951 489.679 200.11 525 200.11 C 562.003 200.11 566.36 216.951 600 216.951 C 634.481 216.951 644.734 200.11 675 200.11 C 706.108 200.11 710.656 216.951 750 216.951 C 776.743 216.951 789.689 200.11 825 200.11 C 861.162 200.11 864.679 216.951 900 216.951 C 936.162 216.951 940.53 200.11 975 200.11 C 1012.031 200.11 1015.53 216.951 1050 216.951 C 1085.312 216.951 1091.36 200.11 1125 200.11 C 1159.481 200.11 1165.53 216.951 1200 216.951 C 1235.312 216.951 1239.679 200.11 1275 200.11 C 1312.003 200.11 1316.36 216.951 1350 216.951 C 1384.481 216.951 1394.734 200.11 1425 200.11 C 1456.108 200.11 1460.656 216.951 1500 216.951 L 1500 171.868 C 1468.459 171.868 1459.728 155.027 1425 155.027 C 1391.114 155.027 1380.56 171.868 1350 171.868 C 1318.602 171.868 1310.568 155.027 1275 155.027 C 1238.592 155.027 1233.046 171.868 1200 171.868 C 1167.795 171.868 1161.409 155.027 1125 155.027 C 1089.433 155.027 1084.717 171.868 1050 171.868 C 1016.124 171.868 1013.124 155.027 975 155.027 C 937.717 155.027 931.819 171.868 900 171.868 C 867.342 171.868 861.302 154.766 825 155.027 C 788.699 155.288 785.566 171.868 750 171.868 C 718.459 171.868 709.728 155.027 675 155.027 C 641.114 155.027 630.56 171.868 600 171.868 C 568.602 171.868 560.568 155.027 525 155.027 C 488.592 155.027 483.046 171.868 450 171.868 C 417.795 171.868 411.409 155.027 375 155.027 C 339.433 155.027 334.717 171.868 300 171.868 C 266.124 171.868 263.124 155.027 225 155.027 C 187.717 155.027 181.819 171.868 150 171.868 C 117.342 171.868 111.302 154.766 75 155.027 L 75 155.027 Z  M 75 245.251 C 38.699 245.513 35.566 262.092 0 262.092 L 0 307.194 C 26.743 307.194 39.689 290.354 75 290.354 C 111.162 290.354 114.679 307.194 150 307.194 C 186.162 307.194 190.53 290.354 225 290.354 C 262.031 290.354 265.53 307.194 300 307.194 C 335.312 307.194 341.36 290.354 375 290.354 C 409.481 290.354 415.53 307.194 450 307.194 C 485.312 307.194 489.679 290.354 525 290.354 C 562.003 290.354 566.36 307.194 600 307.194 C 634.481 307.194 644.734 290.354 675 290.354 C 706.108 290.354 710.656 307.194 750 307.194 C 776.743 307.194 789.689 290.354 825 290.354 C 861.162 290.354 864.679 307.194 900 307.194 C 936.162 307.194 940.53 290.354 975 290.354 C 1012.031 290.354 1015.53 307.194 1050 307.194 C 1085.312 307.194 1091.36 290.354 1125 290.354 C 1159.481 290.354 1165.53 307.194 1200 307.194 C 1235.312 307.194 1239.679 290.354 1275 290.354 C 1312.003 290.354 1316.36 307.194 1350 307.194 C 1384.481 307.194 1394.734 290.354 1425 290.354 C 1456.108 290.354 1460.656 307.194 1500 307.194 L 1500 262.092 C 1468.459 262.092 1459.728 245.251 1425 245.251 C 1391.114 245.251 1380.56 262.092 1350 262.092 C 1318.602 262.092 1310.568 245.251 1275 245.251 C 1238.592 245.251 1233.046 262.092 1200 262.092 C 1167.795 262.092 1161.409 245.251 1125 245.251 C 1089.433 245.251 1084.717 262.092 1050 262.092 C 1016.124 262.092 1013.124 245.251 975 245.251 C 937.717 245.251 931.819 262.092 900 262.092 C 867.342 262.092 861.302 244.99 825 245.251 C 788.699 245.513 785.566 262.092 750 262.092 C 718.459 262.092 709.728 245.251 675 245.251 C 641.114 245.251 630.56 262.092 600 262.092 C 568.602 262.092 560.568 245.251 525 245.251 C 488.592 245.251 483.046 262.092 450 262.092 C 417.795 262.092 411.409 245.251 375 245.251 C 339.433 245.251 334.717 262.092 300 262.092 C 266.124 262.092 263.124 245.251 225 245.251 C 187.717 245.251 181.819 262.092 150 262.092 C 117.342 262.092 111.302 244.99 75 245.251 L 75 245.251 Z  M 75 335.456 C 38.699 335.717 35.566 352.297 0 352.297 L 0 397.38 C 26.743 397.38 39.689 380.539 75 380.539 C 111.162 380.539 114.679 397.38 150 397.38 C 186.162 397.38 190.53 380.539 225 380.539 C 262.031 380.539 265.53 397.38 300 397.38 C 335.312 397.38 341.36 380.539 375 380.539 C 409.481 380.539 415.53 397.38 450 397.38 C 485.312 397.38 489.679 380.539 525 380.539 C 562.003 380.539 566.36 397.38 600 397.38 C 634.481 397.38 644.734 380.539 675 380.539 C 706.108 380.539 710.656 397.38 750 397.38 C 776.743 397.38 789.689 380.539 825 380.539 C 861.162 380.539 864.679 397.38 900 397.38 C 936.162 397.38 940.53 380.539 975 380.539 C 1012.031 380.539 1015.53 397.38 1050 397.38 C 1085.312 397.38 1091.36 380.539 1125 380.539 C 1159.481 380.539 1165.53 397.38 1200 397.38 C 1235.312 397.38 1239.679 380.539 1275 380.539 C 1312.003 380.539 1316.36 397.38 1350 397.38 C 1384.481 397.38 1394.734 380.539 1425 380.539 C 1456.108 380.539 1460.656 397.38 1500 397.38 L 1500 352.297 C 1468.459 352.297 1459.728 335.456 1425 335.456 C 1391.114 335.456 1380.56 352.297 1350 352.297 C 1318.602 352.297 1310.568 335.456 1275 335.456 C 1238.592 335.456 1233.046 352.297 1200 352.297 C 1167.795 352.297 1161.409 335.456 1125 335.456 C 1089.433 335.456 1084.717 352.297 1050 352.297 C 1016.124 352.297 1013.124 335.456 975 335.456 C 937.717 335.456 931.819 352.297 900 352.297 C 867.342 352.297 861.302 335.195 825 335.456 C 788.699 335.717 785.566 352.297 750 352.297 C 718.459 352.297 709.728 335.456 675 335.456 C 641.114 335.456 630.56 352.297 600 352.297 C 568.602 352.297 560.568 335.456 525 335.456 C 488.592 335.456 483.046 352.297 450 352.297 C 417.795 352.297 411.409 335.456 375 335.456 C 339.433 335.456 334.717 352.297 300 352.297 C 266.124 352.297 263.124 335.456 225 335.456 C 187.717 335.456 181.819 352.297 150 352.297 C 117.342 352.297 111.302 335.195 75 335.456 L 75 335.456 Z " fill="rgb(255,255,255)" fill-opacity="0.02"/><path d=" M 75 426.003 C 38.699 426.264 35.566 442.843 0 442.843 L 0 487.946 C 26.743 487.946 39.689 471.105 75 471.105 C 111.162 471.105 114.679 487.946 150 487.946 C 186.162 487.946 190.53 471.105 225 471.105 C 262.031 471.105 265.53 487.946 300 487.946 C 335.312 487.946 341.36 471.105 375 471.105 C 409.481 471.105 415.53 487.946 450 487.946 C 485.312 487.946 489.679 471.105 525 471.105 C 562.003 471.105 566.36 487.946 600 487.946 C 634.481 487.946 644.734 471.105 675 471.105 C 706.108 471.105 710.656 487.946 750 487.946 C 776.743 487.946 789.689 471.105 825 471.105 C 861.162 471.105 864.679 487.946 900 487.946 C 936.162 487.946 940.53 471.105 975 471.105 C 1012.031 471.105 1015.53 487.946 1050 487.946 C 1085.312 487.946 1091.36 471.105 1125 471.105 C 1159.481 471.105 1165.53 487.946 1200 487.946 C 1235.312 487.946 1239.679 471.105 1275 471.105 C 1312.003 471.105 1316.36 487.946 1350 487.946 C 1384.481 487.946 1394.734 471.105 1425 471.105 C 1456.108 471.105 1460.656 487.946 1500 487.946 L 1500 442.843 C 1468.459 442.843 1459.728 426.003 1425 426.003 C 1391.114 426.003 1380.56 442.843 1350 442.843 C 1318.602 442.843 1310.568 426.003 1275 426.003 C 1238.592 426.003 1233.046 442.843 1200 442.843 C 1167.795 442.843 1161.409 426.003 1125 426.003 C 1089.433 426.003 1084.717 442.843 1050 442.843 C 1016.124 442.843 1013.124 426.003 975 426.003 C 937.717 426.003 931.819 442.843 900 442.843 C 867.342 442.843 861.302 425.742 825 426.003 C 788.699 426.264 785.566 442.843 750 442.843 C 718.459 442.843 709.728 426.003 675 426.003 C 641.114 426.003 630.56 442.843 600 442.843 C 568.602 442.843 560.568 426.003 525 426.003 C 488.592 426.003 483.046 442.843 450 442.843 C 417.795 442.843 411.409 426.003 375 426.003 C 339.433 426.003 334.717 442.843 300 442.843 C 266.124 442.843 263.124 426.003 225 426.003 C 187.717 426.003 181.819 442.843 150 442.843 C 117.342 442.843 111.302 425.742 75 426.003 L 75 426.003 Z  M 75 516.208 C 38.699 516.469 35.566 533.048 0 533.048 L 0 578.132 C 26.743 578.132 39.689 561.291 75 561.291 C 111.162 561.291 114.679 578.132 150 578.132 C 186.162 578.132 190.53 561.291 225 561.291 C 262.031 561.291 265.53 578.132 300 578.132 C 335.312 578.132 341.36 561.291 375 561.291 C 409.481 561.291 415.53 578.132 450 578.132 C 485.312 578.132 489.679 561.291 525 561.291 C 562.003 561.291 566.36 578.132 600 578.132 C 634.481 578.132 644.734 561.291 675 561.291 C 706.108 561.291 710.656 578.132 750 578.132 C 776.743 578.132 789.689 561.291 825 561.291 C 861.162 561.291 864.679 578.132 900 578.132 C 936.162 578.132 940.53 561.291 975 561.291 C 1012.031 561.291 1015.53 578.132 1050 578.132 C 1085.312 578.132 1091.36 561.291 1125 561.291 C 1159.481 561.291 1165.53 578.132 1200 578.132 C 1235.312 578.132 1239.679 561.291 1275 561.291 C 1312.003 561.291 1316.36 578.132 1350 578.132 C 1384.481 578.132 1394.734 561.291 1425 561.291 C 1456.108 561.291 1460.656 578.132 1500 578.132 L 1500 533.048 C 1468.459 533.048 1459.728 516.208 1425 516.208 C 1391.114 516.208 1380.56 533.048 1350 533.048 C 1318.602 533.048 1310.568 516.208 1275 516.208 C 1238.592 516.208 1233.046 533.048 1200 533.048 C 1167.795 533.048 1161.409 516.208 1125 516.208 C 1089.433 516.208 1084.717 533.048 1050 533.048 C 1016.124 533.048 1013.124 516.208 975 516.208 C 937.717 516.208 931.819 533.048 900 533.048 C 867.342 533.048 861.302 515.946 825 516.208 C 788.699 516.469 785.566 533.048 750 533.048 C 718.459 533.048 709.728 516.208 675 516.208 C 641.114 516.208 630.56 533.048 600 533.048 C 568.602 533.048 560.568 516.208 525 516.208 C 488.592 516.208 483.046 533.048 450 533.048 C 417.795 533.048 411.409 516.208 375 516.208 C 339.433 516.208 334.717 533.048 300 533.048 C 266.124 533.048 263.124 516.208 225 516.208 C 187.717 516.208 181.819 533.048 150 533.048 C 117.342 533.048 111.302 515.946 75 516.208 L 75 516.208 Z  M 75 606.432 C 38.699 606.693 35.566 623.273 0 623.273 L 0 668.375 C 26.743 668.375 39.689 651.535 75 651.535 C 111.162 651.535 114.679 668.375 150 668.375 C 186.162 668.375 190.53 651.535 225 651.535 C 262.031 651.535 265.53 668.375 300 668.375 C 335.312 668.375 341.36 651.535 375 651.535 C 409.481 651.535 415.53 668.375 450 668.375 C 485.312 668.375 489.679 651.535 525 651.535 C 562.003 651.535 566.36 668.375 600 668.375 C 634.481 668.375 644.734 651.535 675 651.535 C 706.108 651.535 710.656 668.375 750 668.375 C 776.743 668.375 789.689 651.535 825 651.535 C 861.162 651.535 864.679 668.375 900 668.375 C 936.162 668.375 940.53 651.535 975 651.535 C 1012.031 651.535 1015.53 668.375 1050 668.375 C 1085.312 668.375 1091.36 651.535 1125 651.535 C 1159.481 651.535 1165.53 668.375 1200 668.375 C 1235.312 668.375 1239.679 651.535 1275 651.535 C 1312.003 651.535 1316.36 668.375 1350 668.375 C 1384.481 668.375 1394.734 651.535 1425 651.535 C 1456.108 651.535 1460.656 668.375 1500 668.375 L 1500 623.273 C 1468.459 623.273 1459.728 606.432 1425 606.432 C 1391.114 606.432 1380.56 623.273 1350 623.273 C 1318.602 623.273 1310.568 606.432 1275 606.432 C 1238.592 606.432 1233.046 623.273 1200 623.273 C 1167.795 623.273 1161.409 606.432 1125 606.432 C 1089.433 606.432 1084.717 623.273 1050 623.273 C 1016.124 623.273 1013.124 606.432 975 606.432 C 937.717 606.432 931.819 623.273 900 623.273 C 867.342 623.273 861.302 606.171 825 606.432 C 788.699 606.693 785.566 623.273 750 623.273 C 718.459 623.273 709.728 606.432 675 606.432 C 641.114 606.432 630.56 623.273 600 623.273 C 568.602 623.273 560.568 606.432 525 606.432 C 488.592 606.432 483.046 623.273 450 623.273 C 417.795 623.273 411.409 606.432 375 606.432 C 339.433 606.432 334.717 623.273 300 623.273 C 266.124 623.273 263.124 606.432 225 606.432 C 187.717 606.432 181.819 623.273 150 623.273 C 117.342 623.273 111.302 606.171 75 606.432 L 75 606.432 Z  M 75 696.637 C 38.699 696.898 35.566 713.478 0 713.478 L 0 758.561 C 26.743 758.561 39.689 741.72 75 741.72 C 111.162 741.72 114.679 758.561 150 758.561 C 186.162 758.561 190.53 741.72 225 741.72 C 262.031 741.72 265.53 758.561 300 758.561 C 335.312 758.561 341.36 741.72 375 741.72 C 409.481 741.72 415.53 758.561 450 758.561 C 485.312 758.561 489.679 741.72 525 741.72 C 562.003 741.72 566.36 758.561 600 758.561 C 634.481 758.561 644.734 741.72 675 741.72 C 706.108 741.72 710.656 758.561 750 758.561 C 776.743 758.561 789.689 741.72 825 741.72 C 861.162 741.72 864.679 758.561 900 758.561 C 936.162 758.561 940.53 741.72 975 741.72 C 1012.031 741.72 1015.53 758.561 1050 758.561 C 1085.312 758.561 1091.36 741.72 1125 741.72 C 1159.481 741.72 1165.53 758.561 1200 758.561 C 1235.312 758.561 1239.679 741.72 1275 741.72 C 1312.003 741.72 1316.36 758.561 1350 758.561 C 1384.481 758.561 1394.734 741.72 1425 741.72 C 1456.108 741.72 1460.656 758.561 1500 758.561 L 1500 713.478 C 1468.459 713.478 1459.728 696.637 1425 696.637 C 1391.114 696.637 1380.56 713.478 1350 713.478 C 1318.602 713.478 1310.568 696.637 1275 696.637 C 1238.592 696.637 1233.046 713.478 1200 713.478 C 1167.795 713.478 1161.409 696.637 1125 696.637 C 1089.433 696.637 1084.717 713.478 1050 713.478 C 1016.124 713.478 1013.124 696.637 975 696.637 C 937.717 696.637 931.819 713.478 900 713.478 C 867.342 713.478 861.302 696.376 825 696.637 C 788.699 696.898 785.566 713.478 750 713.478 C 718.459 713.478 709.728 696.637 675 696.637 C 641.114 696.637 630.56 713.478 600 713.478 C 568.602 713.478 560.568 696.637 525 696.637 C 488.592 696.637 483.046 713.478 450 713.478 C 417.795 713.478 411.409 696.637 375 696.637 C 339.433 696.637 334.717 713.478 300 713.478 C 266.124 713.478 263.124 696.637 225 696.637 C 187.717 696.637 181.819 713.478 150 713.478 C 117.342 713.478 111.302 696.376 75 696.637 L 75 696.637 Z  M 75 786.822 C 38.699 787.083 35.566 803.663 0 803.663 L 0 848.766 C 26.743 848.766 39.689 831.924 75 831.924 C 111.162 831.924 114.679 848.766 150 848.766 C 186.162 848.766 190.53 831.924 225 831.924 C 262.031 831.924 265.53 848.766 300 848.766 C 335.312 848.766 341.36 831.924 375 831.924 C 409.481 831.924 415.53 848.766 450 848.766 C 485.312 848.766 489.679 831.924 525 831.924 C 562.003 831.924 566.36 848.766 600 848.766 C 634.481 848.766 644.734 831.924 675 831.924 C 706.108 831.924 710.656 848.766 750 848.766 C 776.743 848.766 789.689 831.924 825 831.924 C 861.162 831.924 864.679 848.766 900 848.766 C 936.162 848.766 940.53 831.924 975 831.924 C 1012.031 831.924 1015.53 848.766 1050 848.766 C 1085.312 848.766 1091.36 831.924 1125 831.924 C 1159.481 831.924 1165.53 848.766 1200 848.766 C 1235.312 848.766 1239.679 831.924 1275 831.924 C 1312.003 831.924 1316.36 848.766 1350 848.766 C 1384.481 848.766 1394.734 831.924 1425 831.924 C 1456.108 831.924 1460.656 848.766 1500 848.766 L 1500 803.663 C 1468.459 803.663 1459.728 786.822 1425 786.822 C 1391.114 786.822 1380.56 803.663 1350 803.663 C 1318.602 803.663 1310.568 786.822 1275 786.822 C 1238.592 786.822 1233.046 803.663 1200 803.663 C 1167.795 803.663 1161.409 786.822 1125 786.822 C 1089.433 786.822 1084.717 803.663 1050 803.663 C 1016.124 803.663 1013.124 786.822 975 786.822 C 937.717 786.822 931.819 803.663 900 803.663 C 867.342 803.663 861.302 786.561 825 786.822 C 788.699 787.083 785.566 803.663 750 803.663 C 718.459 803.663 709.728 786.822 675 786.822 C 641.114 786.822 630.56 803.663 600 803.663 C 568.602 803.663 560.568 786.822 525 786.822 C 488.592 786.822 483.046 803.663 450 803.663 C 417.795 803.663 411.409 786.822 375 786.822 C 339.433 786.822 334.717 803.663 300 803.663 C 266.124 803.663 263.124 786.822 225 786.822 C 187.717 786.822 181.819 803.663 150 803.663 C 117.342 803.663 111.302 786.561 75 786.822 L 75 786.822 Z  M 75 877.027 C 38.699 877.288 35.566 893.868 0 893.868 L 0 938.951 C 26.743 938.951 39.689 922.11 75 922.11 C 111.162 922.11 114.679 938.951 150 938.951 C 186.162 938.951 190.53 922.11 225 922.11 C 262.031 922.11 265.53 938.951 300 938.951 C 335.312 938.951 341.36 922.11 375 922.11 C 409.481 922.11 415.53 938.951 450 938.951 C 485.312 938.951 489.679 922.11 525 922.11 C 562.003 922.11 566.36 938.951 600 938.951 C 634.481 938.951 644.734 922.11 675 922.11 C 706.108 922.11 710.656 938.951 750 938.951 C 776.743 938.951 789.689 922.11 825 922.11 C 861.162 922.11 864.679 938.951 900 938.951 C 936.162 938.951 940.53 922.11 975 922.11 C 1012.031 922.11 1015.53 938.951 1050 938.951 C 1085.312 938.951 1091.36 922.11 1125 922.11 C 1159.481 922.11 1165.53 938.951 1200 938.951 C 1235.312 938.951 1239.679 922.11 1275 922.11 C 1312.003 922.11 1316.36 938.951 1350 938.951 C 1384.481 938.951 1394.734 922.11 1425 922.11 C 1456.108 922.11 1460.656 938.951 1500 938.951 L 1500 893.868 C 1468.459 893.868 1459.728 877.027 1425 877.027 C 1391.114 877.027 1380.56 893.868 1350 893.868 C 1318.602 893.868 1310.568 877.027 1275 877.027 C 1238.592 877.027 1233.046 893.868 1200 893.868 C 1167.795 893.868 1161.409 877.027 1125 877.027 C 1089.433 877.027 1084.717 893.868 1050 893.868 C 1016.124 893.868 1013.124 877.027 975 877.027 C 937.717 877.027 931.819 893.868 900 893.868 C 867.342 893.868 861.302 876.766 825 877.027 C 788.699 877.288 785.566 893.868 750 893.868 C 718.459 893.868 709.728 877.027 675 877.027 C 641.114 877.027 630.56 893.868 600 893.868 C 568.602 893.868 560.568 877.027 525 877.027 C 488.592 877.027 483.046 893.868 450 893.868 C 417.795 893.868 411.409 877.027 375 877.027 C 339.433 877.027 334.717 893.868 300 893.868 C 266.124 893.868 263.124 877.027 225 877.027 C 187.717 877.027 181.819 893.868 150 893.868 C 117.342 893.868 111.302 876.766 75 877.027 L 75 877.027 Z  M 75 967.251 C 38.699 967.513 35.566 984.092 0 984.092 L 0 1029.194 C 26.743 1029.194 39.689 1012.354 75 1012.354 C 111.162 1012.354 114.679 1029.194 150 1029.194 C 186.162 1029.194 190.53 1012.354 225 1012.354 C 262.031 1012.354 265.53 1029.194 300 1029.194 C 335.312 1029.194 341.36 1012.354 375 1012.354 C 409.481 1012.354 415.53 1029.194 450 1029.194 C 485.312 1029.194 489.679 1012.354 525 1012.354 C 562.003 1012.354 566.36 1029.194 600 1029.194 C 634.481 1029.194 644.734 1012.354 675 1012.354 C 706.108 1012.354 710.656 1029.194 750 1029.194 C 776.743 1029.194 789.689 1012.354 825 1012.354 C 861.162 1012.354 864.679 1029.194 900 1029.194 C 936.162 1029.194 940.53 1012.354 975 1012.354 C 1012.031 1012.354 1015.53 1029.194 1050 1029.194 C 1085.312 1029.194 1091.36 1012.354 1125 1012.354 C 1159.481 1012.354 1165.53 1029.194 1200 1029.194 C 1235.312 1029.194 1239.679 1012.354 1275 1012.354 C 1312.003 1012.354 1316.36 1029.194 1350 1029.194 C 1384.481 1029.194 1394.734 1012.354 1425 1012.354 C 1456.108 1012.354 1460.656 1029.194 1500 1029.194 L 1500 984.092 C 1468.459 984.092 1459.728 967.251 1425 967.251 C 1391.114 967.251 1380.56 984.092 1350 984.092 C 1318.602 984.092 1310.568 967.251 1275 967.251 C 1238.592 967.251 1233.046 984.092 1200 984.092 C 1167.795 984.092 1161.409 967.251 1125 967.251 C 1089.433 967.251 1084.717 984.092 1050 984.092 C 1016.124 984.092 1013.124 967.251 975 967.251 C 937.717 967.251 931.819 984.092 900 984.092 C 867.342 984.092 861.302 966.99 825 967.251 C 788.699 967.513 785.566 984.092 750 984.092 C 718.459 984.092 709.728 967.251 675 967.251 C 641.114 967.251 630.56 984.092 600 984.092 C 568.602 984.092 560.568 967.251 525 967.251 C 488.592 967.251 483.046 984.092 450 984.092 C 417.795 984.092 411.409 967.251 375 967.251 C 339.433 967.251 334.717 984.092 300 984.092 C 266.124 984.092 263.124 967.251 225 967.251 C 187.717 967.251 181.819 984.092 150 984.092 C 117.342 984.092 111.302 966.99 75 967.251 L 75 967.251 Z  M 75 1057.456 C 38.699 1057.717 35.566 1074.297 0 1074.297 L 0 1119.38 C 26.743 1119.38 39.689 1102.539 75 1102.539 C 111.162 1102.539 114.679 1119.38 150 1119.38 C 186.162 1119.38 190.53 1102.539 225 1102.539 C 262.031 1102.539 265.53 1119.38 300 1119.38 C 335.312 1119.38 341.36 1102.539 375 1102.539 C 409.481 1102.539 415.53 1119.38 450 1119.38 C 485.312 1119.38 489.679 1102.539 525 1102.539 C 562.003 1102.539 566.36 1119.38 600 1119.38 C 634.481 1119.38 644.734 1102.539 675 1102.539 C 706.108 1102.539 710.656 1119.38 750 1119.38 C 776.743 1119.38 789.689 1102.539 825 1102.539 C 861.162 1102.539 864.679 1119.38 900 1119.38 C 936.162 1119.38 940.53 1102.539 975 1102.539 C 1012.031 1102.539 1015.53 1119.38 1050 1119.38 C 1085.312 1119.38 1091.36 1102.539 1125 1102.539 C 1159.481 1102.539 1165.53 1119.38 1200 1119.38 C 1235.312 1119.38 1239.679 1102.539 1275 1102.539 C 1312.003 1102.539 1316.36 1119.38 1350 1119.38 C 1384.481 1119.38 1394.734 1102.539 1425 1102.539 C 1456.108 1102.539 1460.656 1119.38 1500 1119.38 L 1500 1074.297 C 1468.459 1074.297 1459.728 1057.456 1425 1057.456 C 1391.114 1057.456 1380.56 1074.297 1350 1074.297 C 1318.602 1074.297 1310.568 1057.456 1275 1057.456 C 1238.592 1057.456 1233.046 1074.297 1200 1074.297 C 1167.795 1074.297 1161.409 1057.456 1125 1057.456 C 1089.433 1057.456 1084.717 1074.297 1050 1074.297 C 1016.124 1074.297 1013.124 1057.456 975 1057.456 C 937.717 1057.456 931.819 1074.297 900 1074.297 C 867.342 1074.297 861.302 1057.195 825 1057.456 C 788.699 1057.717 785.566 1074.297 750 1074.297 C 718.459 1074.297 709.728 1057.456 675 1057.456 C 641.114 1057.456 630.56 1074.297 600 1074.297 C 568.602 1074.297 560.568 1057.456 525 1057.456 C 488.592 1057.456 483.046 1074.297 450 1074.297 C 417.795 1074.297 411.409 1057.456 375 1057.456 C 339.433 1057.456 334.717 1074.297 300 1074.297 C 266.124 1074.297 263.124 1057.456 225 1057.456 C 187.717 1057.456 181.819 1074.297 150 1074.297 C 117.342 1074.297 111.302 1057.195 75 1057.456 L 75 1057.456 Z " fill="rgb(255,255,255)" fill-opacity="0.02"/></g></svg>