<?xml version="1.0" encoding="iso-8859-1"?>
<!-- Generator: Adobe Illustrator 19.0.0, SVG Export Plug-In . SVG Version: 6.00 Build 0)  -->
<svg xmlns="http://www.w3.org/2000/svg" xmlns:xlink="http://www.w3.org/1999/xlink" version="1.1" id="Capa_1" x="0px" y="0px" viewBox="0 0 512 512" style="enable-background:new 0 0 512 512;" xml:space="preserve" width="50px" height="50px">
<g>
	<g>
		<g>
			<path d="M256,0C114.833,0,0,114.833,0,256s114.833,256,256,256s256-114.833,256-256S397.167,0,256,0z M256,490.667     C126.604,490.667,21.333,385.396,21.333,256S126.604,21.333,256,21.333c64.599,0,123.177,26.247,165.654,68.625     c-4.796-2.871-10.336-4.625-16.32-4.625c-17.646,0-32,14.354-32,32c0,5.896,4.771,10.667,10.667,10.667     c5.896,0,10.667-4.771,10.667-10.667c0-5.875,4.792-10.667,10.667-10.667S416,111.458,416,117.333v9.417     c0,3.292-1.833,6.229-4.771,7.708c-10.208,5.104-16.563,15.375-16.563,26.792v9.417c0,5.896,4.771,10.667,10.667,10.667     c5.896,0,10.667-4.771,10.667-10.667v-9.417c0-3.292,1.833-6.229,4.771-7.708c10.208-5.104,16.563-15.375,16.563-26.792v-9.417     c0-4.908-1.201-9.505-3.182-13.665c35.142,41.038,56.516,94.194,56.516,152.332C490.667,385.396,385.396,490.667,256,490.667z" fill="#b7b7b7"/>
			<circle cx="181.333" cy="213.333" r="21.333" fill="#b7b7b7"/>
			<circle cx="320" cy="213.333" r="21.333" fill="#b7b7b7"/>
			<path d="M309.333,170.667c0.25,0,25.625,0.417,33.125,15.438c1.875,3.729,5.646,5.896,9.542,5.896     c1.604,0,3.229-0.354,4.771-1.125c5.271-2.646,7.396-9.042,4.771-14.313c-13.458-26.917-50.625-27.229-52.208-27.229     c-5.896,0-10.667,4.771-10.667,10.667S303.438,170.667,309.333,170.667z" fill="#b7b7b7"/>
			<path d="M138.354,183.917c0.083-0.333,9.146-34.583,53.646-34.583c5.896,0,10.667-4.771,10.667-10.667     c0-5.896-4.771-10.667-10.667-10.667c-48.771,0-69.958,33.188-74.354,50.75c-1.417,5.708,2.042,11.5,7.771,12.938     c0.875,0.208,1.729,0.313,2.583,0.313C132.792,192,137.146,188.771,138.354,183.917z" fill="#b7b7b7"/>
			<path d="M373.333,341.333H138.667c-5.896,0-10.667,4.771-10.667,10.667c0,5.896,4.771,10.667,10.667,10.667h234.667     c5.896,0,10.667-4.771,10.667-10.667C384,346.104,379.229,341.333,373.333,341.333z" fill="#b7b7b7"/>
			<circle cx="405.333" cy="202.667" r="10.667" fill="#b7b7b7"/>
		</g>
	</g>
</g>
<g>
</g>
<g>
</g>
<g>
</g>
<g>
</g>
<g>
</g>
<g>
</g>
<g>
</g>
<g>
</g>
<g>
</g>
<g>
</g>
<g>
</g>
<g>
</g>
<g>
</g>
<g>
</g>
<g>
</g>
</svg>
